<?xml version="1.0" standalone="no"?>
<!DOCTYPE svg PUBLIC "-//W3C//DTD SVG 20010904//EN"
 "http://www.w3.org/TR/2001/REC-SVG-20010904/DTD/svg10.dtd">
<svg version="1.0" xmlns="http://www.w3.org/2000/svg"
 width="500.000000pt" height="500.000000pt" viewBox="0 0 500.000000 500.000000"
 preserveAspectRatio="xMidYMid meet">
<metadata>
Created by potrace 1.15, written by Peter Selinger 2001-2017
</metadata>
<g transform="translate(0.000000,500.000000) scale(0.100000,-0.100000)"
fill="#000000" stroke="none">
<path d="M0 2500 l0 -2500 2500 0 2500 0 0 2500 0 2500 -2500 0 -2500 0 0
-2500z m2301 1233 l194 -6 310 -728 c215 -505 312 -723 317 -711 7 14 198 912
198 927 0 3 -49 5 -110 5 -126 0 -196 13 -241 43 -57 39 -73 71 -77 151 -3 62
0 80 21 122 30 59 106 138 159 165 73 37 167 43 568 33 374 -9 375 -9 419 -34
66 -37 94 -94 89 -187 -3 -65 -7 -77 -43 -129 -47 -68 -130 -128 -200 -145
-28 -7 -54 -16 -59 -20 -4 -4 -101 -448 -215 -986 l-207 -978 -240 -3 -241 -2
-316 742 c-174 409 -317 740 -317 737 0 -3 -45 -216 -100 -474 -55 -257 -100
-471 -100 -475 0 -4 60 -10 133 -13 72 -3 150 -12 171 -19 77 -25 126 -100
126 -195 0 -59 -51 -153 -115 -211 -92 -85 -96 -85 -518 -90 -474 -5 -532 4
-594 84 -36 48 -45 151 -18 220 33 87 156 184 253 200 l39 6 138 647 c75 355
145 683 155 727 l17 81 -96 5 c-181 9 -251 67 -251 208 0 75 28 135 96 203
104 106 173 117 655 100z"/>
</g>
</svg>
